<svg width="90" height="65" viewBox="0 0 90 65" fill="none" xmlns="http://www.w3.org/2000/svg">
<g clip-path="url(#clip0_367_262)">
<path fill-rule="evenodd" clip-rule="evenodd" d="M42.4484 27.9319V23.1541C42.6603 22.2868 43.0547 21.8384 43.5003 21.7575C45.049 21.4856 44.7933 27.6011 42.4484 27.9319ZM57.1969 24.661C60.5133 28.248 65.6413 23.551 70.6378 22.2353C73.4721 21.4856 74.9988 26.55 78.6585 24.7051L79.0019 28.7111C81.2737 28.1892 79.6593 35.2529 77.687 34.8854C77.0369 37.0465 76.7885 38.568 75.7293 40.0013C73.7424 42.6769 70.5209 44.0441 67.9423 43.9853C65.5098 43.9338 62.4126 42.5887 60.4257 40.1189C59.2057 38.5974 58.8113 36.9288 58.0516 34.5988C55.9478 35.2309 54.5379 28.0642 56.8244 28.6743L57.1969 24.661ZM71.6021 13.4736V14.3556C71.6021 14.7673 71.266 15.098 70.8643 15.098H69.3741V16.5975C69.3741 17.0091 69.0381 17.3399 68.6363 17.3399H67.7597C67.3506 17.3399 67.0219 17.0018 67.0219 16.5975V15.098H65.5317C65.1227 15.098 64.7939 14.7599 64.7939 14.3556V13.4736C64.7939 13.0619 65.13 12.7312 65.5317 12.7312H67.0219V11.2317C67.0219 10.8201 67.3579 10.4893 67.7597 10.4893H68.6363C69.0454 10.4893 69.3741 10.8274 69.3741 11.2317V12.7312H70.857C71.266 12.7238 71.6021 13.0619 71.6021 13.4736ZM62.8947 7.19629H73.4794C73.8446 7.19629 74.2245 7.24775 74.6043 7.35065C75.4225 7.56382 76.1968 8.00484 76.7666 8.59288C77.4167 9.26177 77.8331 10.1144 77.8331 11.07C77.8331 11.3272 77.7966 11.6066 77.7235 11.8932L76.7374 15.6934C77.0369 16.0242 77.3291 16.377 77.592 16.7592C83.4286 25.1093 85.3717 40.141 75.7804 42.0889C77.0588 42.9121 78.6147 43.0591 80.2218 42.9636C85.0503 43.0885 88.4178 45.1687 89.7692 49.9612V60.5458C89.7619 61.8101 89.0168 62.6775 87.2198 62.9788H69.922L74.188 42.3829C73.6474 42.8019 73.0703 43.162 72.4786 43.4634C70.9665 44.2352 69.3522 44.6174 67.9204 44.588C66.569 44.5586 65.0277 44.1543 63.574 43.4046C62.9093 43.0591 62.2592 42.6475 61.6529 42.1624L61.4776 42.1256L65.7874 62.9715H61.6894C61.032 54.8419 62.8655 50.5272 58.3803 42.721C59.1692 42.5593 59.6148 42.3535 60.2723 41.8463C55.3342 40.6188 53.245 38.862 53.245 31.7541V29.3285C53.5518 24.0141 54.8813 19.3098 57.7302 15.8698C58.1538 15.3626 58.6944 14.8849 59.3226 14.4512L58.6579 11.8932C58.5848 11.6066 58.5483 11.3272 58.5483 11.07C58.5483 10.1144 58.9647 9.26177 59.6148 8.59288C60.1846 8.00484 60.9589 7.56382 61.777 7.35065C62.1496 7.24775 62.5294 7.19629 62.8947 7.19629ZM62.8947 8.69579H73.4794C75.0207 8.69579 76.6643 10.0115 76.2772 11.511L75.4882 14.5394L74.9623 16.5755C74.5751 18.075 73.6986 19.3907 72.1645 19.3907H64.2096C62.6755 19.3907 61.799 18.075 61.4118 16.5755L60.6521 13.6647L60.0969 11.5184C59.7098 10.0189 61.3534 8.69579 62.8947 8.69579ZM76.3137 54.2392H81.9238V55.5916H76.3137V54.2392ZM67.2119 62.9715L64.3557 51.5342C66.5909 52.012 68.9504 52.0561 71.456 51.5342L68.7313 62.9715H67.2119ZM66.737 35.3338C66.6056 35.2088 66.5982 34.9883 66.7151 34.8487C66.8393 34.709 67.0438 34.7017 67.1753 34.8266C67.4091 35.0545 67.6355 35.1647 67.8474 35.1574C68.0665 35.1574 68.293 35.0398 68.534 34.8193C68.6728 34.6943 68.8773 34.709 68.9942 34.856C69.1111 35.003 69.0965 35.2162 68.9577 35.3412C68.5998 35.6719 68.2345 35.841 67.8474 35.8483C67.4748 35.8557 67.095 35.6866 66.737 35.3338ZM75.2691 28.6964C75.4079 28.8213 75.4298 29.0345 75.3129 29.1815C75.196 29.3285 74.9915 29.3505 74.8527 29.2256C74.2318 28.6816 73.0046 28.9169 71.9454 29.1153C71.3902 29.2182 70.8862 29.3211 70.4771 29.3064C70.2945 29.2991 70.1557 29.1374 70.163 28.9463C70.1703 28.7552 70.3237 28.6081 70.499 28.6155C70.8351 28.6302 71.3099 28.5346 71.8285 28.4391C73.0265 28.2112 74.4217 27.9466 75.2691 28.6964ZM63.9393 31.6953C63.9685 31.7835 63.9904 31.8864 63.9904 31.9893C63.9904 32.4524 63.6325 32.8346 63.1942 32.8346C62.7559 32.8346 62.398 32.4598 62.398 31.9893C62.398 31.8203 62.4418 31.6659 62.5221 31.5336C62.0838 31.563 61.6383 31.6659 61.2 31.8497C61.0466 31.9158 60.8785 31.8129 60.8274 31.6292C60.7763 31.4454 60.8566 31.2396 61.01 31.1808C61.6017 30.9309 62.2007 30.8206 62.7997 30.828C63.3987 30.8353 63.9904 30.9529 64.5748 31.1808C64.7282 31.2396 64.8159 31.4381 64.7647 31.6292C64.7136 31.8129 64.5529 31.9232 64.3995 31.8644C64.2461 31.7909 64.0927 31.7394 63.9393 31.6953ZM71.8066 31.6218C71.7774 31.71 71.7628 31.7982 71.7628 31.8938C71.7628 32.3569 72.1207 32.7391 72.559 32.7391C72.9973 32.7391 73.3552 32.3642 73.3552 31.8938C73.3552 31.7468 73.3187 31.6071 73.253 31.4895C73.6839 31.5189 74.1222 31.6071 74.5678 31.7615C74.7212 31.8129 74.8892 31.7027 74.9331 31.5189C74.9769 31.3278 74.8892 31.1367 74.7285 31.0779C74.1295 30.8721 73.5378 30.7692 72.9462 30.7692C72.3545 30.7692 71.7701 30.8721 71.1857 31.0779C71.0323 31.1293 70.9446 31.3278 70.9885 31.5189C71.0323 31.71 71.193 31.8129 71.3537 31.7615C71.4998 31.71 71.6532 31.6586 71.8066 31.6218ZM60.8932 29.3138C60.7544 29.4387 60.5498 29.4167 60.433 29.2697C60.3161 29.1227 60.338 28.9022 60.4768 28.7846C61.3315 28.0348 62.7194 28.2994 63.9101 28.5273C64.4287 28.6228 64.9035 28.7184 65.2395 28.7037C65.4222 28.6963 65.5683 28.8434 65.5756 29.0345C65.5829 29.2256 65.4441 29.3873 65.2615 29.3946C64.8597 29.4093 64.3484 29.3138 63.8005 29.2035C62.7486 29.0051 61.5214 28.7699 60.8932 29.3138ZM65.035 38.1784C64.8962 38.0608 64.8743 37.8403 64.9839 37.6933C65.0934 37.5463 65.3053 37.5242 65.4441 37.6418C66.3353 38.3989 67.1753 38.7738 67.9642 38.7738C68.7386 38.7738 69.4764 38.3989 70.1849 37.6639C70.3164 37.5316 70.5209 37.5316 70.6451 37.6712C70.7693 37.8109 70.7693 38.0241 70.6378 38.1564C69.8051 39.0164 68.9139 39.4574 67.9642 39.4574C67.0219 39.4648 66.0504 39.0384 65.035 38.1784ZM13.9449 55.2388C14.9603 55.2388 15.7858 56.0694 15.7858 57.0911C15.7858 58.1128 14.9603 58.9434 13.9449 58.9434C12.9296 58.9434 12.1041 58.1128 12.1041 57.0911C12.1041 56.0694 12.9296 55.2388 13.9449 55.2388ZM21.2863 20.802C21.0891 20.8755 20.8699 20.7579 20.8042 20.5447C20.7384 20.3242 20.8407 20.089 21.0379 20.0155C21.8049 19.7288 22.572 19.5965 23.339 19.5965C24.106 19.6038 24.8657 19.7435 25.6327 20.0081C25.8299 20.0743 25.9395 20.3095 25.881 20.53C25.8153 20.7505 25.6035 20.8681 25.4062 20.802C25.1506 20.7138 24.9022 20.6403 24.6465 20.5815C24.6684 20.6697 24.6831 20.7579 24.6831 20.8534C24.6831 21.4194 24.2082 21.8751 23.6238 21.8751C23.0395 21.8751 22.5646 21.4194 22.5646 20.8534C22.5646 20.7138 22.5939 20.5815 22.645 20.4639C22.1921 20.5153 21.7392 20.6256 21.2863 20.802ZM33.6242 20.4932C33.5803 20.6035 33.5438 20.508 33.5438 20.8608C33.5438 21.2062 34.0186 21.8825 34.603 21.8825C35.1874 21.8825 35.6622 21.4268 35.6622 20.8608C35.6622 20.6991 35.6257 20.5447 35.5527 20.405C36.0129 20.4565 36.4877 20.5521 36.9552 20.6991C37.1597 20.7652 37.3643 20.6329 37.4227 20.4124C37.4811 20.1919 37.3643 19.964 37.1597 19.8979C36.3927 19.6553 35.6257 19.5377 34.866 19.5377C34.1063 19.5377 33.3466 19.6627 32.5942 19.8979C32.397 19.964 32.2801 20.1919 32.3385 20.4124C32.397 20.6329 32.6088 20.7579 32.806 20.6917C33.0836 20.6109 33.3612 20.5447 33.6242 20.4932ZM29.1171 62.354L20.5704 36.9582L23.1563 39.3986C23.1709 39.4133 23.1929 39.4353 23.2148 39.4501C23.5946 39.7514 23.9891 39.9866 24.3982 40.1704C24.7999 40.3542 25.2236 40.4865 25.6619 40.582C26.4216 40.7511 28.0944 40.8613 29.6796 40.8613C31.0967 40.8613 32.4773 40.7731 33.1494 40.5673C33.6023 40.4277 34.0406 40.2292 34.4569 39.9719C34.866 39.7147 35.2605 39.3986 35.6403 39.0237L37.598 37.1935L29.1171 62.354ZM20.344 36.7524C18.3132 39.0531 15.7273 39.6191 12.9003 39.4427C12.1041 39.4648 11.3298 39.5309 10.592 39.6412C9.78117 42.2359 9.56933 44.6174 9.88344 46.8005C10.1829 48.9248 10.9865 50.8653 12.2064 52.6368C12.7396 52.4236 13.324 52.306 13.9376 52.306C16.5674 52.306 18.6931 54.4523 18.6931 57.0911C18.6931 59.7373 16.5601 61.8763 13.9376 61.8763C11.3079 61.8763 9.18217 59.7299 9.18217 57.0911C9.18217 55.6798 9.78848 54.4156 10.7527 53.5409C9.40863 51.5783 8.52474 49.4099 8.18872 47.0431C7.88191 44.8747 8.02801 42.5372 8.69275 40.0454C-2.70281 43.2723 0.379839 55.2462 0.379839 65.0002H57.8543C57.8543 55.3344 60.8712 43.0959 49.3588 39.994C49.4757 40.5379 49.5414 41.126 49.5487 41.714C49.5634 42.4931 49.483 43.287 49.3077 44.0441C49.578 44.1396 49.8336 44.2425 50.0893 44.3528C50.6079 44.588 51.0828 44.86 51.4991 45.1908C52.8724 46.2786 53.4495 47.5797 53.6102 48.9983C53.7563 50.314 53.5299 51.6885 53.2742 53.0704L53.2669 53.0925C53.245 53.2174 53.1939 53.5041 53.1427 53.7908C52.814 55.7239 52.4415 57.885 50.9878 59.3477C50.4692 59.8696 49.8775 60.2371 49.2054 60.4356C49.1178 60.4576 49.0374 60.4797 48.9497 60.5017C48.621 61.0751 48.0074 61.4573 47.2988 61.4573C46.247 61.4573 45.3923 60.5973 45.3923 59.5388C45.3923 58.4804 46.247 57.6204 47.2988 57.6204C48.0439 57.6204 48.6868 58.054 49.0009 58.6788C49.2785 58.5539 49.5341 58.3701 49.7679 58.1349C50.8344 57.0544 51.1558 55.1727 51.448 53.4968C51.4772 53.313 51.5137 53.1366 51.5722 52.7764L51.5795 52.747C51.8132 51.4974 52.0251 50.2626 51.9009 49.1747C51.7913 48.1897 51.3896 47.2856 50.4326 46.5285C50.1258 46.286 49.7752 46.0875 49.3807 45.9111C48.9717 45.7273 48.5115 45.573 48.0147 45.426C48.0001 45.4186 47.9855 45.4186 47.9709 45.4113C47.8832 45.3819 47.8102 45.3378 47.7371 45.2863C47.6495 45.2937 47.5618 45.2937 47.4742 45.279C46.8606 45.1613 46.2396 45.1172 45.6699 45.1393C45.1074 45.1613 44.5961 45.2496 44.187 45.3966C41.9736 46.1978 41.4988 48.4323 41.0313 50.6154L41.024 50.6448C40.9875 50.8065 40.9509 50.9829 40.8779 51.299C40.7829 51.7106 40.688 52.0708 40.6003 52.4236C40.2716 53.6879 39.9794 54.7904 40.3885 56.1135C40.4907 56.4516 40.6076 56.753 40.7318 57.0029C41.0824 56.6207 41.5792 56.3855 42.1343 56.3855C43.1862 56.3855 44.0409 57.2455 44.0409 58.3039C44.0409 59.3624 43.1862 60.2224 42.1343 60.2224C41.4331 60.2224 40.8195 59.8402 40.4907 59.2742C40.2862 59.1493 40.089 58.9949 39.9137 58.8038C39.4169 58.2892 39.0371 57.5469 38.7595 56.6207C38.2116 54.8272 38.555 53.5041 38.9567 51.9899C39.0517 51.6371 39.1466 51.2769 39.2197 50.9314C39.2416 50.8212 39.3 50.5639 39.3585 50.2846C39.3585 50.2699 39.3658 50.2626 39.3658 50.2479C39.9356 47.6091 40.5126 44.9041 43.6172 43.7795C44.187 43.5737 44.8736 43.4487 45.6114 43.4193C46.2689 43.3899 46.9701 43.434 47.6568 43.5589C47.7883 42.9709 47.8467 42.3461 47.8321 41.7287C47.8175 40.9569 47.7006 40.2145 47.4669 39.6044C46.7802 39.5089 46.0643 39.4501 45.3192 39.428C42.5361 39.5971 39.9794 39.0531 37.9633 36.8333L38.1532 36.6495C38.4162 36.3996 38.701 36.1497 38.964 35.9071C41.1189 33.9519 42.5069 32.695 42.3462 29.0124C42.3462 29.0051 42.3462 28.9904 42.3462 28.983V28.7478C42.4119 28.7552 42.485 28.7552 42.558 28.7404C44.187 28.5126 45.0636 26.5868 45.2754 24.7492C45.3338 24.242 45.3411 23.7421 45.3046 23.2938C45.2681 22.8086 45.1731 22.3676 45.0197 22.0074C44.7202 21.2797 44.2235 20.8534 43.5149 20.9049L44.3988 20.3756C44.5011 19.0011 44.8371 17.1341 45.1001 15.3773C45.2243 14.5614 45.2681 13.7823 45.2462 13.0399C45.721 9.13681 44.9394 6.3951 43.0913 4.62364C39.5849 1.16158 34.7491 -0.110049 29.0879 -0.00714236C23.9964 -0.0438946 20.3075 1.42619 17.685 4.065C14.9384 3.66808 13.2583 5.05732 12.82 8.52673V11.4302C12.9223 13.231 13.4993 13.8705 14.2152 13.7308C14.2371 14.0396 14.259 14.3483 14.3102 14.6643C14.6024 16.6416 15.0699 18.7806 15.2525 20.5227L15.9172 20.8828V21.5223C15.6177 21.1989 15.2671 21.0004 14.88 20.9343C14.0691 20.7873 13.5139 21.2283 13.1852 22.0074C13.0391 22.3676 12.9442 22.816 12.9003 23.2938C12.8638 23.7421 12.8711 24.2493 12.9296 24.7492C13.1414 26.5868 14.018 28.5126 15.647 28.7404C15.7346 28.7552 15.8296 28.7552 15.9172 28.7404V30.3134C15.9172 30.3723 15.9245 30.4237 15.9319 30.4825C16.5382 33.283 17.2613 33.9299 18.7807 35.2971C19.051 35.5396 19.3505 35.8116 19.65 36.0909L20.344 36.7524ZM41.4623 17.0459C33.1494 11.3125 28.036 6.56416 21.111 10.7907C18.6493 12.2975 17.8822 15.3773 16.7573 17.0973V30.3355C17.4147 33.3639 18.2183 33.6211 20.2344 35.5176L23.7261 38.8106C24.3543 39.3104 25.0702 39.6044 25.8226 39.7808C27.1521 40.0822 31.608 40.1777 32.8572 39.7882C33.6169 39.553 34.3327 39.1193 34.9902 38.4504L37.525 36.0762C39.9721 33.7829 41.6376 32.7979 41.4623 29.0051V17.0459ZM24.61 16.2961C24.946 16.2814 25.2236 16.5314 25.2382 16.8548C25.2528 17.1782 24.9972 17.4502 24.6611 17.4649C23.7334 17.509 22.9445 17.6854 22.2871 17.9941C21.6442 18.2955 21.1183 18.7218 20.7019 19.2657C20.5047 19.523 20.1248 19.5818 19.8546 19.3833C19.5843 19.1922 19.5331 18.8247 19.7304 18.5674C20.2636 17.8691 20.9357 17.3252 21.7611 16.943C22.5646 16.5608 23.507 16.3403 24.61 16.2961ZM34.1355 17.3399C33.7995 17.3399 33.5365 17.0753 33.5365 16.7592C33.5365 16.4358 33.8068 16.1785 34.1428 16.1785C35.1436 16.1859 36.0567 16.3623 36.8748 16.7372C37.7003 17.112 38.4308 17.678 39.0444 18.4425C39.2489 18.6997 39.1978 19.0599 38.9348 19.2584C38.6718 19.4568 38.292 19.4054 38.0874 19.1555C37.5907 18.538 37.0136 18.0897 36.3635 17.7956C35.6988 17.4869 34.9537 17.3473 34.1355 17.3399ZM27.7949 27.6011C27.5831 27.4321 27.5612 27.1307 27.7365 26.9322C27.9118 26.7338 28.2259 26.7044 28.4304 26.8734C28.6788 27.0719 28.9126 27.1748 29.139 27.1822C29.3655 27.1822 29.6138 27.0866 29.8841 26.8734C30.0959 26.7044 30.4027 26.7338 30.5781 26.9396C30.7534 27.1454 30.7169 27.4394 30.5123 27.6085C30.0594 27.9687 29.5992 28.1377 29.1317 28.1304C28.6642 28.123 28.2186 27.9393 27.7949 27.6011ZM26.2463 33.8711C25.9906 33.7388 25.8957 33.4374 26.0344 33.1948C26.1659 32.9523 26.48 32.8567 26.7357 32.989C27.5319 33.4006 28.3209 33.6064 29.0952 33.6064C29.8695 33.6064 30.6438 33.408 31.4181 32.989C31.6665 32.8567 31.9806 32.9449 32.1194 33.1875C32.2582 33.43 32.1632 33.7314 31.9148 33.8637C30.9871 34.3562 30.0448 34.5988 29.0952 34.5988C28.1455 34.6061 27.1959 34.3562 26.2463 33.8711ZM15.7858 27.9319V23.1541C15.5739 22.2868 15.1795 21.8384 14.7339 21.7575C13.1852 21.4856 13.4336 27.6011 15.7858 27.9319ZM28.277 55.7386L24.9241 42.0374C27.8607 42.6989 30.1617 42.7578 33.4562 42.0374L30.2713 55.7386H28.277Z" fill="white"/>
</g>
<defs>
<clipPath id="clip0_367_262">
<rect width="89.7619" height="65" fill="white"/>
</clipPath>
</defs>
</svg>
