<svg width="99" height="65" viewBox="0 0 99 65" fill="none" xmlns="http://www.w3.org/2000/svg">
<g clip-path="url(#clip0_367_258)">
<path fill-rule="evenodd" clip-rule="evenodd" d="M18.6185 36.9216C21.3163 44.8977 32.5744 45.1976 35.103 36.9216C38.0826 39.6209 44.9921 40.1639 48.2777 42.0039C49.3405 42.5736 50.2688 43.3671 50.9996 44.3303C52.2457 46.0959 52.9537 48.1887 53.037 50.3529L53.2303 51.9254L51.9982 52.5738C49.4698 53.82 46.6242 54.2611 43.8405 53.8383C42.5017 53.6831 41.1563 54.0687 40.0996 54.9105C39.0428 55.7523 38.3609 56.9817 38.2034 58.3289C38.2034 58.491 38.2034 58.6613 38.1632 58.8234H3.14872C1.16768 58.6694 0.16106 57.6399 0 55.8567L0.684505 50.3529C0.761314 48.1888 1.46687 46.0949 2.71386 44.3303C3.45275 43.3686 4.38597 42.5757 5.45188 42.0039C9.35758 39.8154 15.3651 39.8721 18.6185 36.9216ZM59.7532 26.984L62.3463 26.911L64.5045 26.8543C62.0081 19.0647 62.8134 11.9073 68.8853 5.82799C69.9081 9.15946 72.2112 11.9235 76.133 13.9337C78.1046 15.4281 79.9253 17.1141 81.5688 18.9674C81.8829 17.6867 80.6991 16.1223 79.2576 14.5093C80.7585 15.1908 81.9711 16.3854 82.6801 17.8812C83.6868 19.9401 83.6787 21.6909 83.3405 23.9281C83.1854 24.9237 82.9151 25.8976 82.5352 26.83H86.1671C89.9439 18.7242 87.5441 6.56562 79.8213 1.48331C77.4296 -0.0567781 75.6982 -3.79455e-05 72.9441 -3.79455e-05C69.7229 -3.79455e-05 68.1123 0.097231 65.4065 1.91292C61.38 4.58782 58.9157 9.20809 57.8769 15.6927C57.6675 18.8945 57.5226 24.4388 59.7532 27.0407V26.984ZM81.4239 29.9912C85.4987 31.6124 89.6621 33.1444 92.7464 35.0979C94.7113 36.3299 95.726 37.2621 96.5152 38.7617C98.5768 42.6605 98.5284 46.1622 98.9311 50.4663H82.5915V44.1358C82.5873 42.787 82.0531 41.4947 81.1056 40.541C80.1581 39.5873 78.8742 39.0496 77.5343 39.0453L57.9091 38.9076C57.229 38.9054 56.5554 39.0404 55.9281 39.3047C54.9289 38.2376 53.7717 37.3325 52.4975 36.6217C52.1834 36.4434 51.8533 36.2813 51.507 36.1273C51.9499 35.7868 52.4653 35.4383 53.0532 35.0654C56.1455 33.1119 60.3008 31.5475 64.3837 29.9588C65.5756 37.1 81.295 35.9003 81.4239 29.9588V29.9912ZM16.2912 22.2989C15.9554 22.3157 15.6289 22.416 15.341 22.5907C15.1981 22.6846 15.0839 22.8165 15.0108 22.9717C14.9221 23.1699 14.8834 23.387 14.898 23.6039C15.0375 24.6645 15.4544 25.6687 16.106 26.5139L18.6507 30.5667C19.59 32.2116 20.7378 33.7266 22.0652 35.0735C23.359 36.3362 25.0949 37.0351 26.897 37.0189C27.8378 37.0373 28.7728 36.8661 29.6468 36.5153C30.5209 36.1645 31.3164 35.6412 31.9865 34.9763C33.3364 33.5451 34.495 31.9429 35.4332 30.2101L38.3001 25.4601C38.8879 24.1308 39.057 23.304 38.8638 22.9149C38.7591 22.6961 38.3645 22.6069 37.7202 22.6474C37.1891 22.7844 36.63 22.7647 36.1096 22.5907L37.2693 19.3079C32.0187 19.243 28.411 18.3271 24.1832 15.5873C22.79 14.6957 22.3712 13.6663 20.962 13.7716C19.9492 13.9461 19.0213 14.4501 18.3206 15.2063C17.6137 16.0777 17.1298 17.1103 16.9113 18.2136L17.7166 22.3232C17.2413 22.4475 16.7424 22.4475 16.2671 22.3232L16.2912 22.2989ZM39.0973 21.1154C39.3772 21.1866 39.6383 21.3186 39.8623 21.502C40.0862 21.6854 40.2677 21.9159 40.3938 22.1773C40.8287 23.0527 40.6515 24.3415 39.8462 26.2302L39.7979 26.3274L36.8908 31.1422C35.8626 33.0295 34.5868 34.7689 33.0978 36.3137C32.2743 37.1255 31.2981 37.7637 30.2264 38.191C29.1548 38.6183 28.0092 38.8261 26.8567 38.8022C24.6389 38.8024 22.5089 37.9297 20.9217 36.3705C19.4817 34.9227 18.2412 33.2869 17.2334 31.507L14.6887 27.4541C13.8633 26.3521 13.3562 25.0423 13.223 23.6687C13.2005 23.192 13.2916 22.7167 13.4888 22.2827C13.6814 21.8394 14.0011 21.464 14.4068 21.2046C14.6169 21.0624 14.8442 20.948 15.0833 20.8642C14.9108 18.8669 14.8758 16.86 14.9786 14.8578C15.0385 14.2903 15.1463 13.729 15.3007 13.1799C16.0168 10.8689 17.5496 8.90211 19.6091 7.65179C20.3325 7.17985 21.1047 6.78848 21.9122 6.48456C26.8084 4.7094 33.2991 5.67399 36.77 9.45937C38.3065 11.1975 39.1873 13.4239 39.2584 15.7494L39.0973 21.083V21.1154Z" fill="white"/>
<path fill-rule="evenodd" clip-rule="evenodd" d="M77.4779 44.1115L57.885 44.0142L62.8134 48.9506C57.9091 56.4403 51.6278 59.9258 43.2446 58.9288C53.5283 67.9829 64.7622 66.0375 72.5736 58.7991L77.5745 63.8328L77.4779 44.1115Z" fill="#D8453E"/>
</g>
<defs>
<clipPath id="clip0_367_258">
<rect width="98.9552" height="65" fill="white"/>
</clipPath>
</defs>
</svg>
