<svg width="64" height="65" viewBox="0 0 64 65" fill="none" xmlns="http://www.w3.org/2000/svg">
<g clip-path="url(#clip0_367_252)">
<path fill-rule="evenodd" clip-rule="evenodd" d="M41.1646 27.79H49.0968C49.6524 27.79 50.107 28.2445 50.107 28.7941V34.0988C47.0636 34.133 44.2041 34.9505 41.7201 36.3569H41.1646C40.6116 36.3569 40.1543 35.9051 40.1543 35.3529V28.7941C40.1543 28.2419 40.609 27.79 41.1646 27.79ZM5.53637 5.53694H10.6424V12.309C10.6424 14.1914 11.5236 15.8555 12.945 17.0132C14.1468 17.9919 15.7445 18.5986 17.4533 18.5986C19.1596 18.5986 20.7598 17.9919 21.9603 17.0132C23.3818 15.8555 24.263 14.1914 24.263 12.309V5.53694H34.5746V12.309C34.5746 14.1914 35.4545 15.8555 36.8759 17.0132C38.0777 17.9919 39.6754 18.5986 41.3842 18.5986C43.0918 18.5986 44.6907 17.9919 45.8912 17.0132C47.314 15.8555 48.1939 14.1914 48.1939 12.309V5.53694H53.5247C55.0444 5.53694 56.4289 6.15765 57.434 7.15537C58.4391 8.15055 59.0623 9.52653 59.0623 11.0396V36.4534C58.4901 36.1208 57.8988 35.82 57.2884 35.5534V21.4686H1.77394V54.0632C1.77394 56.442 3.73306 58.3905 6.12769 58.3905H34.3766C34.6474 58.9959 34.9526 59.5849 35.2897 60.1523H5.53637C4.01786 60.1523 2.63473 59.5329 1.6309 58.5364C0.623241 57.5336 0 56.1589 0 54.6509V11.0396C0 9.52907 0.623241 8.15435 1.62579 7.15664C2.63217 6.15638 4.01658 5.53694 5.53637 5.53694ZM14.779 2.17822C14.779 0.976136 15.9757 0 17.4533 0C18.9309 0 20.1263 0.976136 20.1263 2.17822V12.309C20.1263 13.5098 18.9309 14.4872 17.4533 14.4872C15.9757 14.4872 14.779 13.5098 14.779 12.309V2.17822ZM38.7112 2.17822C38.7112 0.976136 39.9066 0 41.3842 0C42.8619 0 44.0573 0.976136 44.0573 2.17822V12.309C44.0573 13.5098 42.8619 14.4872 41.3842 14.4872C39.9066 14.4872 38.7112 13.5098 38.7112 12.309V2.17822ZM9.96547 27.79H17.8977C18.4533 27.79 18.908 28.2445 18.908 28.7941V35.3529C18.908 35.9025 18.4507 36.3569 17.8977 36.3569H9.96547C9.41119 36.3569 8.95398 35.9051 8.95398 35.3529V28.7941C8.95398 28.2419 9.40992 27.79 9.96547 27.79ZM9.96547 41.739H17.8977C18.4533 41.739 18.908 42.1935 18.908 42.7431V49.3018C18.908 49.8515 18.4507 50.3059 17.8977 50.3059H9.96547C9.41119 50.3059 8.95398 49.854 8.95398 49.3018V42.7431C8.95398 42.1909 9.40992 41.739 9.96547 41.739ZM25.6474 27.79H33.5797C34.1352 27.79 34.5899 28.2445 34.5899 28.7941V35.3529C34.5899 35.9025 34.1327 36.3569 33.5797 36.3569H25.6474C25.0944 36.3569 24.6372 35.9051 24.6372 35.3529V28.7941C24.6372 28.2419 25.0918 27.79 25.6474 27.79ZM25.6474 41.739H33.5797C34.1352 41.739 34.5899 42.1935 34.5899 42.7431V43.9629C33.6316 45.9518 33.0671 48.1052 32.9271 50.3059H25.6474C25.0944 50.3059 24.6372 49.854 24.6372 49.3018V42.7431C24.6372 42.1909 25.0918 41.739 25.6474 41.739Z" fill="white"/>
<path fill-rule="evenodd" clip-rule="evenodd" d="M50.3063 37.8116C57.8592 37.8116 63.9844 43.8995 63.9844 51.4065C63.9844 58.9122 57.8592 65 50.3063 65C42.7546 65 36.6295 58.9122 36.6295 51.4065C36.6295 43.8995 42.7546 37.8116 50.3063 37.8116ZM46.3561 49.4834L48.5949 51.5854L53.9474 46.1082C54.3867 45.6677 54.6613 45.311 55.2015 45.8645L56.955 47.6517C57.5323 48.2166 57.5029 48.5504 56.9601 49.0772L49.5975 56.362C48.4506 57.4778 48.6511 57.5463 47.4902 56.4014L43.4034 52.3623C43.162 52.1033 43.1863 51.8393 43.4532 51.5804L45.4889 49.4808C45.798 49.1572 46.0432 49.1851 46.3561 49.4834Z" fill="#FE8892"/>
</g>
<defs>
<clipPath id="clip0_367_252">
<rect width="63.9844" height="65" fill="white"/>
</clipPath>
</defs>
</svg>
